<svg width="20" height="20" viewBox="0 0 20 20" fill="none" xmlns="http://www.w3.org/2000/svg">
<path d="M14.9457 9.67129L15.1472 8.94884L14.9457 9.67129ZM15.2951 10.0232L16.0258 9.85417L15.2951 10.0232ZM10.6684 4.73859L10.9284 4.0351L10.9284 4.0351L10.6684 4.73859ZM10.9711 5.13257L10.2292 5.24305L10.9711 5.13257ZM17.2636 1.66699C17.2636 1.25278 16.9278 0.916992 16.5136 0.916992C16.0994 0.916992 15.7636 1.25278 15.7636 1.66699H16.5136H17.2636ZM15.7636 7.16749C15.7636 7.5817 16.0994 7.91749 16.5136 7.91749C16.9278 7.91749 17.2636 7.5817 17.2636 7.16749H16.5136H15.7636ZM13.8136 3.67944C13.3994 3.67944 13.0636 4.01523 13.0636 4.42944C13.0636 4.84366 13.3994 5.17944 13.8136 5.17944V4.42944V3.67944ZM19.1668 5.17944C19.581 5.17944 19.9168 4.84366 19.9168 4.42944C19.9168 4.01523 19.581 3.67944 19.1668 3.67944V4.42944V5.17944ZM6.34447 12.8176C6.1291 12.4638 5.66768 12.3515 5.31386 12.5669C4.96004 12.7823 4.84781 13.2437 5.06318 13.5975L5.70382 13.2075L6.34447 12.8176ZM11.6156 13.5975C11.831 13.2437 11.7187 12.7823 11.3649 12.5669C11.0111 12.3515 10.5497 12.4638 10.3343 12.8176L10.9749 13.2075L11.6156 13.5975ZM6.02454 9.11907V8.36907C5.61033 8.36907 5.27454 8.70486 5.27454 9.11907H6.02454ZM6.10027 9.11907H6.85027C6.85027 8.70486 6.51448 8.36907 6.10027 8.36907V9.11907ZM10.586 9.11907V8.36907C10.1718 8.36907 9.83602 8.70486 9.83602 9.11907H10.586ZM10.6533 9.11907H11.4033C11.4033 8.70486 11.0676 8.36907 10.6533 8.36907V9.11907ZM6.10027 9.18099V9.93099C6.51448 9.93099 6.85027 9.5952 6.85027 9.18099H6.10027ZM6.02454 9.18099H5.27454C5.27454 9.5952 5.61033 9.93099 6.02454 9.93099V9.18099ZM10.6533 9.18099V9.93099C11.0676 9.93099 11.4033 9.5952 11.4033 9.18099H10.6533ZM10.586 9.18099H9.83602C9.83602 9.5952 10.1718 9.93099 10.586 9.93099V9.18099ZM10.6684 4.73859L10.9284 4.0351C10.0644 3.71577 9.13202 3.54182 8.16117 3.54182V4.29182V5.04182C8.95166 5.04182 9.7081 5.18326 10.4084 5.44209L10.6684 4.73859ZM14.9457 9.67129L15.1472 8.94884C13.366 8.45227 11.9957 6.92107 11.7129 5.02208L10.9711 5.13257L10.2292 5.24305C10.5987 7.72377 12.3893 9.73718 14.7443 10.3937L14.9457 9.67129ZM15.4888 11.7294H16.2388C16.2388 11.085 16.1653 10.4571 16.0258 9.85417L15.2951 10.0232L14.5644 10.1921C14.6784 10.685 14.7388 11.1995 14.7388 11.7294H15.4888ZM8.16117 19.167V19.917C12.6328 19.917 16.2388 16.2407 16.2388 11.7294H15.4888H14.7388C14.7388 15.4334 11.7834 18.417 8.16117 18.417V19.167ZM0.833496 11.7294H0.0834961C0.0834961 16.2407 3.68951 19.917 8.16117 19.917V19.167V18.417C4.53891 18.417 1.5835 15.4334 1.5835 11.7294H0.833496ZM8.16117 4.29182V3.54182C3.68951 3.54182 0.0834961 7.2181 0.0834961 11.7294H0.833496H1.5835C1.5835 8.02539 4.53891 5.04182 8.16117 5.04182V4.29182ZM14.9457 9.67129L14.7443 10.3937C14.6832 10.3767 14.5933 10.3172 14.5644 10.1921L15.2951 10.0232L16.0258 9.85417C15.9162 9.38019 15.5482 9.06065 15.1472 8.94884L14.9457 9.67129ZM10.6684 4.73859L10.4084 5.44209C10.2776 5.39374 10.2366 5.29226 10.2292 5.24305L10.9711 5.13257L11.7129 5.02208C11.6528 4.61862 11.3904 4.20583 10.9284 4.0351L10.6684 4.73859ZM16.5136 1.66699H15.7636V7.16749H16.5136H17.2636V1.66699H16.5136ZM13.8136 4.42944V5.17944H19.1668V4.42944V3.67944H13.8136V4.42944ZM8.33938 14.7222V13.9722C7.51439 13.9722 6.77412 13.5234 6.34447 12.8176L5.70382 13.2075L5.06318 13.5975C5.74212 14.7129 6.94834 15.4722 8.33938 15.4722V14.7222ZM10.9749 13.2075L10.3343 12.8176C9.90465 13.5234 9.16438 13.9722 8.33938 13.9722V14.7222V15.4722C9.73043 15.4722 10.9366 14.7129 11.6156 13.5975L10.9749 13.2075ZM6.02454 9.11907V9.86907H6.10027V9.11907V8.36907H6.02454V9.11907ZM10.586 9.11907V9.86907H10.6533V9.11907V8.36907H10.586V9.11907ZM6.10027 9.11907H5.35027V9.18099H6.10027H6.85027V9.11907H6.10027ZM6.10027 9.18099V8.43099H6.02454V9.18099V9.93099H6.10027V9.18099ZM6.02454 9.18099H6.77454V9.11907H6.02454H5.27454V9.18099H6.02454ZM10.6533 9.11907H9.90334V9.18099H10.6533H11.4033V9.11907H10.6533ZM10.6533 9.18099V8.43099H10.586V9.18099V9.93099H10.6533V9.18099ZM10.586 9.18099H11.336V9.11907H10.586H9.83602V9.18099H10.586Z" fill="currentColor"/>
</svg>
