<svg width="20" height="20" viewBox="0 0 20 20" fill="none" xmlns="http://www.w3.org/2000/svg">
<path d="M14.9457 9.67129L15.08 9.18966L14.9457 9.67129ZM15.2951 10.0232L15.7823 9.9105L15.2951 10.0232ZM10.6684 4.73859L10.8417 4.2696L10.8417 4.2696L10.6684 4.73859ZM10.9711 5.13257L10.4765 5.20622L10.9711 5.13257ZM17.0136 1.66699C17.0136 1.39085 16.7897 1.16699 16.5136 1.16699C16.2374 1.16699 16.0136 1.39085 16.0136 1.66699H16.5136H17.0136ZM16.0136 7.16749C16.0136 7.44363 16.2374 7.66749 16.5136 7.66749C16.7897 7.66749 17.0136 7.44363 17.0136 7.16749H16.5136H16.0136ZM13.8136 3.92944C13.5374 3.92944 13.3136 4.1533 13.3136 4.42944C13.3136 4.70559 13.5374 4.92944 13.8136 4.92944V4.42944V3.92944ZM19.1668 4.92944C19.443 4.92944 19.6668 4.70559 19.6668 4.42944C19.6668 4.1533 19.443 3.92944 19.1668 3.92944V4.42944V4.92944ZM6.13092 12.9476C5.98734 12.7117 5.67973 12.6369 5.44385 12.7804C5.20797 12.924 5.13315 13.2316 5.27672 13.4675L5.70382 13.2075L6.13092 12.9476ZM11.402 13.4675C11.5456 13.2316 11.4708 12.924 11.2349 12.7804C10.999 12.6369 10.6914 12.7117 10.5478 12.9476L10.9749 13.2075L11.402 13.4675ZM6.02454 9.11907V8.61907C5.7484 8.61907 5.52454 8.84293 5.52454 9.11907H6.02454ZM6.10027 9.11907H6.60027C6.60027 8.84293 6.37641 8.61907 6.10027 8.61907V9.11907ZM10.586 9.11907V8.61907C10.3099 8.61907 10.086 8.84293 10.086 9.11907H10.586ZM10.6533 9.11907H11.1533C11.1533 8.84293 10.9295 8.61907 10.6533 8.61907V9.11907ZM6.10027 9.18099V9.68099C6.37641 9.68099 6.60027 9.45713 6.60027 9.18099H6.10027ZM6.02454 9.18099H5.52454C5.52454 9.45713 5.7484 9.68099 6.02454 9.68099V9.18099ZM10.6533 9.18099V9.68099C10.9295 9.68099 11.1533 9.45713 11.1533 9.18099H10.6533ZM10.586 9.18099H10.086C10.086 9.45713 10.3099 9.68099 10.586 9.68099V9.18099ZM10.6684 4.73859L10.8417 4.2696C10.005 3.96035 9.10196 3.79182 8.16117 3.79182V4.29182V4.79182C8.98172 4.79182 9.76747 4.93868 10.4951 5.20759L10.6684 4.73859ZM14.9457 9.67129L15.08 9.18966C13.2032 8.66642 11.7629 7.05485 11.4656 5.05891L10.9711 5.13257L10.4765 5.20622C10.8315 7.58999 12.5521 9.52302 14.8115 10.1529L14.9457 9.67129ZM15.4888 11.7294H15.9888C15.9888 11.1041 15.9175 10.4951 15.7823 9.9105L15.2951 10.0232L14.808 10.1358C14.9262 10.647 14.9888 11.1804 14.9888 11.7294H15.4888ZM8.16117 19.167V19.667C12.4913 19.667 15.9888 16.1062 15.9888 11.7294H15.4888H14.9888C14.9888 15.568 11.925 18.667 8.16117 18.667V19.167ZM0.833496 11.7294H0.333496C0.333496 16.1062 3.83107 19.667 8.16117 19.667V19.167V18.667C4.39734 18.667 1.3335 15.568 1.3335 11.7294H0.833496ZM8.16117 4.29182V3.79182C3.83107 3.79182 0.333496 7.35265 0.333496 11.7294H0.833496H1.3335C1.3335 7.89084 4.39734 4.79182 8.16117 4.79182V4.29182ZM14.9457 9.67129L14.8115 10.1529C14.8172 10.1545 14.8191 10.1568 14.8179 10.1555C14.817 10.1547 14.8151 10.1526 14.8131 10.149C14.8109 10.1452 14.8091 10.1407 14.808 10.1358L15.2951 10.0232L15.7823 9.9105C15.6957 9.53636 15.404 9.27999 15.08 9.18966L14.9457 9.67129ZM10.6684 4.73859L10.4951 5.20759C10.4885 5.20516 10.4829 5.20192 10.4788 5.19875C10.4748 5.19569 10.4728 5.1933 10.4723 5.19263C10.4719 5.19201 10.4726 5.19283 10.4737 5.19542C10.4747 5.198 10.4758 5.20167 10.4765 5.20622L10.9711 5.13257L11.4656 5.05891C11.4168 4.73089 11.2049 4.40381 10.8417 4.2696L10.6684 4.73859ZM16.5136 1.66699H16.0136V7.16749H16.5136H17.0136V1.66699H16.5136ZM13.8136 4.42944V4.92944H19.1668V4.42944V3.92944H13.8136V4.42944ZM8.33938 14.7222V14.2222C7.42004 14.2222 6.60212 13.7217 6.13092 12.9476L5.70382 13.2075L5.27672 13.4675C5.91412 14.5147 7.04268 15.2222 8.33938 15.2222V14.7222ZM10.9749 13.2075L10.5478 12.9476C10.0766 13.7217 9.25872 14.2222 8.33938 14.2222V14.7222V15.2222C9.63609 15.2222 10.7646 14.5147 11.402 13.4675L10.9749 13.2075ZM6.02454 9.11907V9.61907H6.10027V9.11907V8.61907H6.02454V9.11907ZM10.586 9.11907V9.61907H10.6533V9.11907V8.61907H10.586V9.11907ZM6.10027 9.11907H5.60027V9.18099H6.10027H6.60027V9.11907H6.10027ZM6.10027 9.18099V8.68099H6.02454V9.18099V9.68099H6.10027V9.18099ZM6.02454 9.18099H6.52454V9.11907H6.02454H5.52454V9.18099H6.02454ZM10.6533 9.11907H10.1533V9.18099H10.6533H11.1533V9.11907H10.6533ZM10.6533 9.18099V8.68099H10.586V9.18099V9.68099H10.6533V9.18099ZM10.586 9.18099H11.086V9.11907H10.586H10.086V9.18099H10.586Z" fill="currentColor"/>
</svg>
