<svg width="16" height="16" viewBox="0 0 16 16" fill="none" xmlns="http://www.w3.org/2000/svg">
<rect width="16" height="16" rx="8" fill="white"/>
<path d="M7.48411 3.52344C7.76411 3.52344 7.96811 3.64744 8.09611 3.89544C8.22411 4.14344 8.28811 4.51544 8.28811 5.01144C8.28811 5.35544 8.24811 5.77944 8.16811 6.28344C8.08811 6.77944 7.96811 7.30744 7.80811 7.86744C7.65611 8.42744 7.46811 8.97944 7.24411 9.52344C7.02811 10.0674 6.78011 10.5634 6.50011 11.0114C6.22811 11.4514 5.92811 11.8074 5.60011 12.0794C5.28011 12.3434 4.93611 12.4754 4.56811 12.4754C4.20811 12.4754 3.88011 12.3514 3.58411 12.1034C3.29611 11.8554 3.03211 11.5274 2.79211 11.1194C2.56011 10.7034 2.35611 10.2434 2.18011 9.73944C2.01211 9.22744 1.86811 8.70744 1.74811 8.17944C1.63611 7.65144 1.55211 7.15144 1.49611 6.67944C1.44011 6.19944 1.41211 5.79144 1.41211 5.45544C1.41211 4.86344 1.48411 4.43544 1.62811 4.17144C1.77211 3.89944 2.00011 3.76344 2.31211 3.76344C2.61611 3.76344 2.83611 3.90344 2.97211 4.18344C3.10811 4.45544 3.21211 4.91544 3.28411 5.56344C3.35611 6.14744 3.45211 6.73944 3.57211 7.33944C3.70011 7.93944 3.85611 8.53944 4.04011 9.13944C4.22411 9.73144 4.43611 10.3234 4.67611 10.9154H4.72411C4.92411 10.4834 5.11211 10.0274 5.28811 9.54744C5.47211 9.06744 5.64011 8.57944 5.79211 8.08344C5.95211 7.57944 6.08811 7.08744 6.20011 6.60744C6.31211 6.11944 6.40411 5.66344 6.47611 5.23944C6.58011 4.65544 6.69611 4.22344 6.82411 3.94344C6.96011 3.66344 7.18011 3.52344 7.48411 3.52344Z" fill="#FCA5A5"/>
<path d="M11.1441 12.1946C10.8801 12.1946 10.5841 12.1666 10.2561 12.1106C9.93609 12.0466 9.62409 11.9546 9.32009 11.8346C9.02409 11.7146 8.77609 11.5626 8.57609 11.3786C8.38409 11.1866 8.28809 10.9586 8.28809 10.6946C8.28809 10.4226 8.35609 10.2186 8.49209 10.0826C8.62809 9.94664 8.84809 9.87864 9.15209 9.87864C9.39209 9.87864 9.63609 9.92664 9.88409 10.0226C10.1321 10.1186 10.4001 10.2146 10.6881 10.3106C10.9761 10.4066 11.2961 10.4546 11.6481 10.4546C12.0321 10.4546 12.3121 10.3826 12.4881 10.2386C12.6721 10.0946 12.7641 9.89864 12.7641 9.65064C12.7641 9.49864 12.7121 9.35864 12.6081 9.23064C12.5121 9.10264 12.3401 8.97864 12.0921 8.85864C11.8441 8.73864 11.4881 8.61464 11.0241 8.48664C10.5121 8.35064 10.1081 8.19464 9.81209 8.01864C9.51609 7.83464 9.30409 7.61864 9.17609 7.37064C9.05609 7.12264 8.99609 6.82664 8.99609 6.48264C8.99609 5.97864 9.10409 5.55464 9.32009 5.21064C9.53609 4.86664 9.81209 4.59464 10.1481 4.39464C10.4921 4.18664 10.8601 4.03864 11.2521 3.95064C11.6441 3.85464 12.0161 3.80664 12.3681 3.80664C13.0161 3.80664 13.5481 3.92664 13.9641 4.16664C14.3801 4.39864 14.5881 4.71464 14.5881 5.11464C14.5881 5.33864 14.5161 5.51864 14.3721 5.65464C14.2281 5.79064 14.0081 5.85864 13.7121 5.85864C13.5601 5.85864 13.3761 5.83064 13.1601 5.77464C12.9521 5.71064 12.7201 5.65064 12.4641 5.59464C12.2081 5.53064 11.9281 5.49864 11.6241 5.49864C11.2161 5.49864 10.9001 5.57064 10.6761 5.71464C10.4521 5.85864 10.3401 6.07864 10.3401 6.37464C10.3401 6.63064 10.4521 6.86264 10.6761 7.07064C10.9001 7.27864 11.3281 7.47864 11.9601 7.67064C12.5281 7.84664 12.9761 8.03864 13.3041 8.24664C13.6321 8.45464 13.8641 8.68664 14.0001 8.94264C14.1361 9.19864 14.2041 9.48664 14.2041 9.80664C14.2041 10.2786 14.0721 10.6946 13.8081 11.0546C13.5521 11.4146 13.1961 11.6946 12.7401 11.8946C12.2841 12.0946 11.7521 12.1946 11.1441 12.1946Z" fill="#C4B5FD"/>
</svg>
