<svg width="18" height="18" viewBox="0 0 18 18" fill="none" xmlns="http://www.w3.org/2000/svg">
<path d="M8.9999 10.6665C8.53966 10.6665 8.16656 10.2934 8.16656 9.83315V7.33315C8.16656 6.87292 8.53966 6.49982 8.9999 6.49982C9.46014 6.49982 9.83323 6.87292 9.83323 7.33315V9.83315C9.83323 10.2934 9.46014 10.6665 8.9999 10.6665Z" fill="currentColor"/>
<path d="M7.7499 12.7498C7.7499 12.0595 8.30954 11.4998 8.9999 11.4998C9.69025 11.4998 10.2499 12.0595 10.2499 12.7498C10.2499 13.4402 9.69025 13.9998 8.9999 13.9998C8.30954 13.9998 7.7499 13.4402 7.7499 12.7498Z" fill="currentColor"/>
<path d="M7.52503 1.67949C8.14989 0.492259 9.8499 0.492251 10.4748 1.67948L17.4278 14.8902C18.0119 16.0001 17.2071 17.3332 15.9529 17.3332H2.04687C0.792684 17.3332 -0.0121285 16.0001 0.572004 14.8902L7.52503 1.67949ZM15.9529 15.6665L8.9999 2.45573L2.04687 15.6665L15.9529 15.6665Z" fill="currentColor"/>
</svg>
