<svg width="24" height="24" viewBox="0 0 24 24" fill="none" xmlns="http://www.w3.org/2000/svg">
<path fill-rule="evenodd" clip-rule="evenodd" d="M3.83373 14.0877L2.21898 15.7047C1.78023 16.1442 1.78023 16.8567 2.21973 17.2955C2.65923 17.7342 3.37173 17.7342 3.81048 17.2947L5.80998 15.2937C7.23348 16.031 8.95248 16.6482 10.8897 16.8245V19.4997C10.8897 20.1207 11.3937 20.6247 12.0147 20.6247C12.6357 20.6247 13.1397 20.1207 13.1397 19.4997V16.8215C14.75 16.6707 16.208 16.217 17.4702 15.6432L19.8695 18.0447C20.3082 18.4842 21.0207 18.4842 21.4602 18.0455C21.8997 17.6067 21.8997 16.8942 21.461 16.4547L19.5267 14.519C21.4692 13.2702 22.595 11.9922 22.595 11.9922C23.0045 11.5257 22.9587 10.8147 22.4922 10.4045C22.0257 9.99498 21.3147 10.0407 20.9045 10.5072C20.9045 10.5072 17.294 14.6247 11.9997 14.6247C6.70548 14.6247 3.09498 10.5072 3.09498 10.5072C2.68473 10.0407 1.97373 9.99498 1.50723 10.4045C1.04073 10.8147 0.994982 11.5257 1.40448 11.9922C1.40448 11.9922 2.28573 12.9927 3.83373 14.0877Z" fill="#757575"/>
</svg>
