<svg width="24" height="24" viewBox="0 0 24 24" fill="none" xmlns="http://www.w3.org/2000/svg">
<path d="M15 12C15 13.6592 13.6592 15 12 15C10.3408 15 9 13.6592 9 12C9 10.3408 10.3408 9 12 9C13.6592 9 15 10.3408 15 12Z" stroke="currentColor" stroke-width="1.5" stroke-linecap="round" stroke-linejoin="round"/>
<path d="M11.9999 19.2707C15.5299 19.2707 18.8199 17.442 21.1099 14.2771C22.0099 13.0375 22.0099 10.9539 21.1099 9.71429C18.8199 6.54934 15.5299 4.7207 11.9999 4.7207C8.46984 4.7207 5.17984 6.54934 2.88984 9.71429C1.98984 10.9539 1.98984 13.0375 2.88984 14.2771C5.17984 17.442 8.46984 19.2707 11.9999 19.2707Z" stroke="currentColor" stroke-width="1.5" stroke-linecap="round" stroke-linejoin="round"/>
</svg>
