<svg width="24" height="24" viewBox="0 0 24 24" fill="none" xmlns="http://www.w3.org/2000/svg">
<path d="M21.143 9.667C20.41 8.275 19.229 6.617 17.526 4.914C14.549 1.936 12.048 1 10.741 1C10.327 1 10.033 1.094 9.881 1.246L8.52 2.606C6.621 2.37 5.1 2.712 4.226 3.589C3.35 4.464 3.062 5.748 3.434 7.112C3.926 8.918 5.739 11.161 9.339 12.487C9.377 12.81 9.496 13.125 9.744 13.372C10.332 13.96 11.279 13.958 11.865 13.372C12.451 12.786 12.453 11.839 11.867 11.253C11.279 10.666 10.33 10.665 9.744 11.252L9.574 11.508C7.543 10.743 6.179 9.68 5.342 8.608L9.221 4.733C9.717 7.463 15.653 13.409 18.399 13.911L11.284 21.018C11.05 21.171 8.486 20.702 5.128 17.343C1.735 13.95 1.953 12.072 2.101 11.845L3.96 9.989C3.521 9.63 3.035 8.886 2.819 8.3L0.685 10.431C0.24 10.877 0 11.495 0 12.251C0 13.885 1.121 16.166 3.713 18.757C6.477 21.521 9.293 23 11.145 23C11.793 23 12.325 22.805 12.692 22.438L20.778 14.36C21.688 15.234 20 17.898 20 19.008C20 20.112 20.896 21.007 22 21.007C23.105 21.007 24 20.111 24 19.007C24 15.823 22.575 12.197 21.143 9.667ZM4.934 4.296C5.461 3.766 6.405 3.505 7.59 3.535L4.381 6.741C4.145 5.763 4.332 4.896 4.934 4.296ZM14.226 8.375L14.196 8.346C12.904 7.054 10.393 3.99 11.1 3.283C11.815 2.568 14.588 4.804 16.162 6.379C17.024 7.241 18.25 8.626 19.099 9.837C17.382 8.763 15.608 8.368 14.226 8.375Z" fill="black"/>
</svg>
