<svg width="24" height="24" viewBox="0 0 24 24" fill="none" xmlns="http://www.w3.org/2000/svg">
<path d="M13 21.5C12.6 21.5 7.16667 16.1667 4.5 13.5C11.3 9.5 14 4.5 14.5 2.5L23 11C23 17.5 13.5 21.5 13 21.5Z" fill="white"/>
<path d="M13.5 2C10.8333 2.16667 5.2 4.2 4 11C7.5 10.8333 14.3 8.8 13.5 2Z" fill="white"/>
<path d="M2.857 9.167C3.59 7.775 4.771 6.117 6.474 4.414C9.451 1.436 11.952 0.5 13.259 0.5C13.673 0.5 13.967 0.594 14.119 0.746L15.48 2.106C17.379 1.87 18.9 2.212 19.774 3.089C20.65 3.964 20.938 5.248 20.566 6.612C20.074 8.418 18.261 10.661 14.661 11.987C14.623 12.31 14.504 12.625 14.256 12.872C13.668 13.46 12.721 13.458 12.135 12.872C11.549 12.286 11.547 11.339 12.133 10.753C12.721 10.166 13.67 10.165 14.256 10.752L14.426 11.008C16.457 10.243 17.821 9.18 18.658 8.108L14.779 4.233C14.283 6.963 8.347 12.909 5.601 13.411L12.716 20.518C12.95 20.671 15.514 20.202 18.872 16.843C22.265 13.45 22.047 11.572 21.899 11.345L20.04 9.489C20.479 9.13 20.965 8.386 21.181 7.8L23.315 9.931C23.76 10.377 24 10.995 24 11.751C24 13.385 22.879 15.666 20.287 18.257C17.523 21.021 14.707 22.5 12.855 22.5C12.207 22.5 11.675 22.305 11.308 21.938L3.222 13.86C2.312 14.734 4 17.398 4 18.508C4 19.612 3.104 20.507 2 20.507C0.895 20.507 0 19.611 0 18.507C0 15.323 1.425 11.697 2.857 9.167ZM19.066 3.796C18.539 3.266 17.595 3.005 16.41 3.035L19.619 6.241C19.855 5.263 19.668 4.396 19.066 3.796ZM9.774 7.875L9.804 7.846C11.096 6.554 13.607 3.49 12.9 2.783C12.185 2.068 9.412 4.304 7.838 5.879C6.976 6.741 5.75 8.126 4.901 9.337C6.618 8.263 8.392 7.868 9.774 7.875Z" fill="black"/>
</svg>
