<svg width="20" height="20" viewBox="0 0 20 20" fill="none" xmlns="http://www.w3.org/2000/svg">
<g clip-path="url(#clip0_290_2431)">
<path d="M10.0005 0.78418C8.78453 0.78418 7.58049 1.03777 6.4571 1.53046C5.33372 2.02315 4.31299 2.7453 3.45319 3.65568C1.71674 5.49427 0.741211 7.98794 0.741211 10.5881C0.741211 14.9214 3.39862 18.5979 7.07454 19.9018C7.53751 19.9803 7.68566 19.6763 7.68566 19.4116V17.7548C5.12084 18.343 4.57454 16.441 4.57454 16.441C4.14862 15.3038 3.54677 14.9999 3.54677 14.9999C2.70417 14.392 3.61158 14.4116 3.61158 14.4116C4.53751 14.4803 5.02825 15.4214 5.02825 15.4214C5.8338 16.9116 7.19491 16.4705 7.72269 16.2352C7.80603 15.5979 8.04677 15.1665 8.30603 14.9214C6.25047 14.6763 4.09306 13.8332 4.09306 10.0979C4.09306 9.00967 4.44491 8.13712 5.04677 7.44104C4.95417 7.19594 4.6301 6.17634 5.13936 4.85281C5.13936 4.85281 5.91714 4.5881 7.68566 5.85281C8.41714 5.63712 9.21343 5.52928 10.0005 5.52928C10.7875 5.52928 11.5838 5.63712 12.3153 5.85281C14.0838 4.5881 14.8616 4.85281 14.8616 4.85281C15.3708 6.17634 15.0468 7.19594 14.9542 7.44104C15.556 8.13712 15.9079 9.00967 15.9079 10.0979C15.9079 13.843 13.7412 14.6665 11.6764 14.9116C12.0097 15.2156 12.3153 15.8136 12.3153 16.7254V19.4116C12.3153 19.6763 12.4634 19.9901 12.9357 19.9018C16.6116 18.5881 19.2597 14.9214 19.2597 10.5881C19.2597 9.30063 19.0202 8.02577 18.5549 6.8363C18.0896 5.64684 17.4076 4.56606 16.5478 3.65568C15.688 2.7453 14.6672 2.02315 13.5438 1.53046C12.4205 1.03777 11.2164 0.78418 10.0005 0.78418Z" fill="black"/>
</g>
<defs>
<clipPath id="clip0_290_2431">
<rect width="20" height="20" fill="white"/>
</clipPath>
</defs>
</svg>
