<svg width="24" height="24" viewBox="0 0 24 24" fill="none" xmlns="http://www.w3.org/2000/svg">
<path d="M11.9451 0.970703C5.47343 0.970703 0.225586 6.21763 0.225586 12.6902C0.225586 17.8683 3.58358 22.2613 8.24014 23.8109C8.82582 23.9194 9.04089 23.5567 9.04089 23.2471C9.04089 22.9677 9.02996 22.0444 9.02499 21.0652C5.76452 21.7741 5.07654 19.6824 5.07654 19.6824C4.54344 18.3278 3.77531 17.9677 3.77531 17.9677C2.71205 17.2403 3.85546 17.2551 3.85546 17.2551C5.03233 17.3379 5.65202 18.4629 5.65202 18.4629C6.69727 20.2546 8.39363 19.7366 9.0624 19.4372C9.16755 18.6796 9.47133 18.1627 9.80645 17.8701C7.20344 17.5736 4.46697 16.5687 4.46697 12.0782C4.46697 10.7987 4.92479 9.7532 5.67454 8.9325C5.55284 8.63727 5.15173 7.44532 5.78805 5.83104C5.78805 5.83104 6.77218 5.51604 9.01176 7.03235C9.94653 6.7726 10.9491 6.64245 11.9451 6.63804C12.9411 6.64245 13.9444 6.7726 14.881 7.03235C17.1179 5.51604 18.1007 5.83104 18.1007 5.83104C18.7386 7.44532 18.3373 8.63727 18.2156 8.9325C18.967 9.7532 19.4217 10.7986 19.4217 12.0782C19.4217 16.5794 16.6801 17.5706 14.0704 17.8607C14.4908 18.2244 14.8653 18.9376 14.8653 20.031C14.8653 21.599 14.8517 22.8611 14.8517 23.2471C14.8517 23.559 15.0627 23.9244 15.6568 23.8094C20.3108 22.2579 23.6645 17.8666 23.6645 12.6902C23.6645 6.21763 18.4174 0.970703 11.9451 0.970703Z" fill="white"/>
<path d="M4.61467 17.6646C4.58894 17.7227 4.49721 17.7402 4.41384 17.7003C4.32882 17.6621 4.28102 17.5827 4.3086 17.5242C4.33388 17.4643 4.42561 17.4475 4.51044 17.4878C4.59565 17.5259 4.64418 17.6061 4.61467 17.6646ZM5.19116 18.1789C5.13528 18.2307 5.02599 18.2067 4.95181 18.1248C4.87516 18.0431 4.86082 17.9339 4.91753 17.8812C4.97516 17.8294 5.08114 17.8536 5.15798 17.9354C5.23463 18.0181 5.24952 18.1266 5.19107 18.179M5.58667 18.837C5.51479 18.8869 5.39732 18.8401 5.3248 18.7359C5.25302 18.6318 5.25302 18.5068 5.32636 18.4567C5.39916 18.4066 5.51479 18.4516 5.58832 18.555C5.66001 18.661 5.66001 18.786 5.58657 18.8371M6.25543 19.5993C6.19119 19.67 6.05442 19.6511 5.95423 19.5544C5.85184 19.4599 5.82325 19.3258 5.88769 19.2549C5.95267 19.184 6.09026 19.2039 6.19119 19.2998C6.29293 19.3941 6.324 19.5292 6.25553 19.5993M7.1198 19.8566C7.09158 19.9483 6.95977 19.9901 6.82705 19.9511C6.69451 19.9109 6.60774 19.8034 6.63449 19.7107C6.66206 19.6183 6.79442 19.5748 6.92815 19.6165C7.06051 19.6565 7.14746 19.7632 7.11989 19.8566M8.10364 19.9657C8.10695 20.0624 7.99436 20.1426 7.85502 20.1443C7.71485 20.1473 7.60152 20.0691 7.60005 19.9741C7.60005 19.8765 7.71007 19.7971 7.85015 19.7948C7.98949 19.792 8.10364 19.8697 8.10364 19.9657ZM9.07003 19.9287C9.08676 20.023 8.98988 20.1199 8.85155 20.1456C8.71552 20.1704 8.58959 20.1122 8.57222 20.0188C8.55531 19.9221 8.65403 19.8253 8.78978 19.8002C8.92839 19.7761 9.05238 19.8328 9.07003 19.9287Z" fill="white"/>
</svg>
