<svg width="21" height="20" viewBox="0 0 21 20" fill="none" xmlns="http://www.w3.org/2000/svg">
<g clip-path="url(#clip0_290_2421)">
<path d="M7.29631 0.658267C5.298 1.3515 3.57466 2.66728 2.37942 4.41233C1.18418 6.15739 0.580048 8.23974 0.655752 10.3535C0.731457 12.4673 1.48301 14.5011 2.80002 16.1562C4.11704 17.8113 5.93009 19.0004 7.97287 19.5489C9.629 19.9762 11.3641 19.995 13.0291 19.6036C14.5374 19.2648 15.9319 18.5401 17.076 17.5005C18.2667 16.3854 19.1311 14.9668 19.576 13.3973C20.0595 11.6905 20.1455 9.89567 19.8276 8.15045H10.5276V12.0083H15.9135C15.8059 12.6236 15.5752 13.2108 15.2353 13.7349C14.8954 14.2589 14.4533 14.7091 13.9354 15.0583C13.2778 15.4935 12.5364 15.7862 11.7588 15.9176C10.979 16.0627 10.1792 16.0627 9.39944 15.9176C8.60905 15.7544 7.86137 15.4282 7.20412 14.9598C6.14811 14.2123 5.35518 13.1503 4.9385 11.9255C4.51489 10.6776 4.51489 9.32486 4.9385 8.07702C5.2351 7.20235 5.72543 6.40598 6.37287 5.74733C7.1138 4.97975 8.05183 4.43108 9.08405 4.16151C10.1163 3.89195 11.2028 3.91191 12.2244 4.2192C13.0226 4.46409 13.7524 4.89214 14.3557 5.4692C14.963 4.86504 15.5692 4.25931 16.1744 3.65202C16.4869 3.32545 16.8276 3.01452 17.1354 2.68014C16.2143 1.82314 15.1333 1.15624 13.9541 0.717642C11.8068 -0.0620611 9.45721 -0.0830148 7.29631 0.658267Z" fill="white"/>
<path d="M7.29668 0.65805C9.4574 -0.0837359 11.807 -0.0633337 13.9545 0.715863C15.1339 1.15744 16.2144 1.82755 17.1342 2.68774C16.8217 3.02211 16.492 3.33461 16.1732 3.65961C15.567 4.26482 14.9613 4.86795 14.3561 5.46899C13.7528 4.89192 13.0229 4.46387 12.2248 4.21899C11.2035 3.91061 10.117 3.8895 9.08452 4.15796C8.05202 4.42642 7.11342 4.97408 6.37168 5.74086C5.72423 6.39951 5.23391 7.19589 4.9373 8.07055L1.69824 5.56274C2.85763 3.26361 4.86504 1.50496 7.29668 0.65805Z" fill="#E33629"/>
<path d="M0.838277 8.04688C1.01224 7.18402 1.30129 6.34843 1.69765 5.5625L4.93671 8.07656C4.5131 9.3244 4.5131 10.6772 4.93671 11.925C3.85755 12.7583 2.77786 13.5958 1.69765 14.4375C0.7057 12.463 0.403172 10.2133 0.838277 8.04688Z" fill="#F8BD00"/>
<path d="M10.5271 8.14844H19.8271C20.145 9.89366 20.059 11.6885 19.5755 13.3953C19.1306 14.9648 18.2663 16.3834 17.0755 17.4984C16.0302 16.6828 14.9802 15.8734 13.9349 15.0578C14.4531 14.7082 14.8955 14.2576 15.2354 13.733C15.5753 13.2084 15.8058 12.6205 15.913 12.0047H10.5271C10.5255 10.7203 10.5271 9.43437 10.5271 8.14844Z" fill="#587DBD"/>
<path d="M1.69629 14.4373C2.7765 13.604 3.85618 12.7665 4.93535 11.9248C5.35286 13.1501 6.14692 14.2121 7.2041 14.9592C7.8634 15.4254 8.61269 15.7489 9.4041 15.9092C10.1839 16.0542 10.9837 16.0542 11.7635 15.9092C12.541 15.7778 13.2824 15.485 13.94 15.0498C14.9854 15.8654 16.0354 16.6748 17.0807 17.4904C15.9367 18.5306 14.5423 19.2559 13.0338 19.5951C11.3688 19.9865 9.63367 19.9678 7.97754 19.5404C6.6677 19.1907 5.44422 18.5742 4.38379 17.7295C3.26149 16.8383 2.34478 15.7153 1.69629 14.4373Z" fill="#319F43"/>
</g>
<defs>
<clipPath id="clip0_290_2421">
<rect width="20" height="20" fill="white" transform="translate(0.329102)"/>
</clipPath>
</defs>
</svg>
