<svg width="36" height="36" viewBox="0 0 36 36" fill="none" xmlns="http://www.w3.org/2000/svg">
<path d="M14.0919 13.0179C14.0919 14.3422 13.0184 15.4157 11.6941 15.4157C10.3698 15.4157 9.2962 14.3422 9.2962 13.0179C9.2962 11.6936 10.3698 10.62 11.6941 10.62C13.0184 10.62 14.0919 11.6936 14.0919 13.0179Z" fill="#D9D9D9"/>
<path d="M9.2962 31.4014L22.8841 18.6129L29.2783 25.0071M9.2962 31.4014H25.2819C27.9305 31.4014 30.0776 29.2543 30.0776 26.6057V18.6129M9.2962 31.4014C6.6476 31.4014 4.50049 29.2543 4.50049 26.6057V10.62C4.50049 7.97141 6.6476 5.8243 9.2962 5.8243H19.6869M28.479 13.5429L28.4791 9.02144M28.4791 9.02144L28.479 4.5M28.4791 9.02144L23.9576 9.02144M28.4791 9.02144L33.0005 9.02144M14.0919 13.0179C14.0919 14.3422 13.0184 15.4157 11.6941 15.4157C10.3698 15.4157 9.2962 14.3422 9.2962 13.0179C9.2962 11.6936 10.3698 10.62 11.6941 10.62C13.0184 10.62 14.0919 11.6936 14.0919 13.0179Z" stroke="black" stroke-width="2" stroke-linecap="round" stroke-linejoin="round"/>
</svg>
