<svg width="32" height="32" viewBox="0 0 32 32" fill="none" xmlns="http://www.w3.org/2000/svg">
<rect width="32" height="32" rx="16" fill="#F7F9FB"/>
<path d="M22.0674 15.958C22.0674 19.3169 19.3446 22.0397 15.9857 22.0397C12.6269 22.0397 9.90406 19.3169 9.90406 15.958C9.90406 12.5992 12.6269 9.87635 15.9857 9.87635C19.3446 9.87635 22.0674 12.5992 22.0674 15.958Z" fill="#FFBC4C"/>
<path d="M16.0006 5.73677V4.97656M16.0006 27.0227V26.2624M26.2634 15.9996H27.0236M4.97754 15.9996H5.73775M23.2582 8.74278L23.7957 8.20523M8.20541 23.794L8.74295 23.2565M23.2582 23.2564L23.7957 23.794M8.20541 8.20517L8.74295 8.74272M22.0674 15.958C22.0674 19.3169 19.3446 22.0397 15.9857 22.0397C12.6269 22.0397 9.90406 19.3169 9.90406 15.958C9.90406 12.5992 12.6269 9.87635 15.9857 9.87635C19.3446 9.87635 22.0674 12.5992 22.0674 15.958Z" stroke="#FFBC4C" stroke-width="2" stroke-linecap="round"/>
</svg>
