<svg width="24" height="24" viewBox="0 0 24 24" fill="none" xmlns="http://www.w3.org/2000/svg">
<path d="M18.2127 12.2221C17.7343 11.7437 16.9586 11.7437 16.4802 12.2221L11.2826 17.4197C10.8042 17.8981 10.8042 18.6738 11.2826 19.1522L13.4483 21.3178C13.9267 21.7963 14.7024 21.7963 15.1808 21.3178L20.3784 16.1203C20.8568 15.6419 20.8568 14.8662 20.3784 14.3878L18.2127 12.2221Z" fill="#E6E6E6"/>
<path d="M4 15.5L1.5 3L14 5L17 12L11 18L4 15.5Z" fill="white" stroke="black"/>
<path d="M7.38462 11.7882C8.34147 12.745 9.89282 12.745 10.8497 11.7882C11.8066 10.8313 11.8066 9.27995 10.8497 8.32311C9.89282 7.36626 8.34147 7.36626 7.38462 8.32311C6.42778 9.27995 6.42778 10.8313 7.38462 11.7882Z" fill="#E6E6E6"/>
<path d="M17.8557 11.4545C18.0404 11.9749 17.7681 12.5466 17.2477 12.7313C16.7272 12.916 16.1555 12.6438 15.9708 12.1233L16.9132 11.7889L17.8557 11.4545ZM1.53712 2.47658L0.552997 2.65405C0.494257 2.32831 0.600503 1.99461 0.836761 1.7628C1.07302 1.53098 1.40867 1.43109 1.73324 1.496L1.53712 2.47658ZM11.1477 16.8982C11.6748 17.063 11.9686 17.6238 11.8039 18.151C11.6392 18.6781 11.0783 18.9719 10.5511 18.8072L10.8494 17.8527L11.1477 16.8982ZM1.04658 3.40026C0.656057 3.00973 0.656057 2.37657 1.04658 1.98604C1.4371 1.59552 2.07027 1.59552 2.46079 1.98604L1.75368 2.69315L1.04658 3.40026ZM7.65836 7.18361C8.04888 7.57413 8.04888 8.2073 7.65836 8.59782C7.26783 8.98835 6.63467 8.98835 6.24414 8.59782L6.95125 7.89072L7.65836 7.18361ZM16.9132 11.7889L15.9708 12.1233L13.9374 6.39266L14.8798 6.05825L15.8222 5.72384L17.8557 11.4545L16.9132 11.7889ZM13.5084 4.87083L13.3122 5.85141L1.341 3.45716L1.53712 2.47658L1.73324 1.496L13.7045 3.89025L13.5084 4.87083ZM1.53712 2.47658L2.52125 2.29912L4.70587 14.4138L3.72174 14.5913L2.73762 14.7688L0.552997 2.65405L1.53712 2.47658ZM4.98208 16.0192L5.28035 15.0647L11.1477 16.8982L10.8494 17.8527L10.5511 18.8072L4.6838 16.9736L4.98208 16.0192ZM3.72174 14.5913L4.70587 14.4138C4.76123 14.7208 4.9826 14.9716 5.28035 15.0647L4.98208 16.0192L4.6838 16.9736C3.67511 16.6584 2.92516 15.8088 2.73762 14.7688L3.72174 14.5913ZM14.8798 6.05825L13.9374 6.39266C13.8388 6.1148 13.6013 5.90924 13.3122 5.85141L13.5084 4.87083L13.7045 3.89025C14.6839 4.08614 15.4882 4.78252 15.8222 5.72384L14.8798 6.05825ZM1.75368 2.69315L2.46079 1.98604L7.65836 7.18361L6.95125 7.89072L6.24414 8.59782L1.04658 3.40026L1.75368 2.69315ZM16.4801 12.222L17.1872 12.9291L11.9897 18.1267L11.2825 17.4196L10.5754 16.7125L15.773 11.5149L16.4801 12.222ZM11.2825 19.1521L11.9897 18.445L14.1553 20.6106L13.4482 21.3177L12.7411 22.0249L10.5754 19.8592L11.2825 19.1521ZM15.1807 21.3177L14.4736 20.6106L19.6712 15.4131L20.3783 16.1202L21.0854 16.8273L15.8878 22.0249L15.1807 21.3177ZM20.3783 14.3877L19.6712 15.0948L17.5055 12.9291L18.2126 12.222L18.9197 11.5149L21.0854 13.6805L20.3783 14.3877ZM20.3783 16.1202L19.6712 15.4131C19.7591 15.3252 19.7591 15.1827 19.6712 15.0948L20.3783 14.3877L21.0854 13.6805C21.9543 14.5495 21.9543 15.9583 21.0854 16.8273L20.3783 16.1202ZM13.4482 21.3177L14.1553 20.6106C14.2432 20.6985 14.3857 20.6985 14.4736 20.6106L15.1807 21.3177L15.8878 22.0249C15.0189 22.8938 13.61 22.8938 12.7411 22.0249L13.4482 21.3177ZM11.2825 17.4196L11.9897 18.1267C11.9018 18.2146 11.9018 18.3571 11.9897 18.445L11.2825 19.1521L10.5754 19.8592C9.7065 18.9902 9.7065 17.5814 10.5754 16.7125L11.2825 17.4196ZM16.4801 12.222L15.773 11.5149C16.642 10.6459 18.0508 10.6459 18.9197 11.5149L18.2126 12.222L17.5055 12.9291C17.4176 12.8412 17.2751 12.8412 17.1872 12.9291L16.4801 12.222ZM7.38438 11.7889L8.09149 11.0818C8.65781 11.6481 9.576 11.6481 10.1423 11.0818L10.8494 11.7889L11.5565 12.496C10.2092 13.8433 8.02464 13.8433 6.67727 12.496L7.38438 11.7889ZM10.8494 11.7889L10.1423 11.0818C10.7086 10.5154 10.7086 9.59728 10.1423 9.03095L10.8494 8.32385L11.5565 7.61674C12.9039 8.96411 12.9039 11.1486 11.5565 12.496L10.8494 11.7889ZM10.8494 8.32385L10.1423 9.03095C9.576 8.46463 8.65781 8.46463 8.09149 9.03095L7.38438 8.32385L6.67728 7.61674C8.02465 6.26937 10.2092 6.26937 11.5565 7.61674L10.8494 8.32385ZM7.38438 8.32385L8.09149 9.03095C7.52517 9.59728 7.52517 10.5154 8.09149 11.0818L7.38438 11.7889L6.67727 12.496C5.3299 11.1486 5.32991 8.96411 6.67728 7.61674L7.38438 8.32385Z" fill="black"/>
</svg>
