<svg width="16" height="16" viewBox="0 0 16 16" fill="none" xmlns="http://www.w3.org/2000/svg">
<path d="M3.19961 14.3996H12.7996C13.6833 14.3996 14.3996 13.6456 14.3996 12.7154V3.28382C14.3996 2.35366 13.6833 1.59961 12.7996 1.59961H3.19961C2.31595 1.59961 1.59961 2.35365 1.59961 3.28382V12.7154C1.59961 13.6456 2.31595 14.3996 3.19961 14.3996Z" fill="white"/>
<path d="M3.19961 14.3996H12.7996C13.6833 14.3996 14.3996 13.6456 14.3996 12.7154V3.28382C14.3996 2.35366 13.6833 1.59961 12.7996 1.59961H3.19961C2.31595 1.59961 1.59961 2.35365 1.59961 3.28382V12.7154C1.59961 13.6456 2.31595 14.3996 3.19961 14.3996Z" fill="#86EFAC"/>
<path d="M3.99961 10.3995H11.9996L9.33294 5.73286L7.33294 8.73286L5.99961 7.39953L3.99961 10.3995Z" fill="white"/>
<path d="M3.99961 10.3995H11.9996L9.33294 5.73286L7.33294 8.73286L5.99961 7.39953L3.99961 10.3995Z" fill="#86EFAC"/>
<path d="M3.19961 14.3996H12.7996C13.6833 14.3996 14.3996 13.6456 14.3996 12.7154V3.28382C14.3996 2.35366 13.6833 1.59961 12.7996 1.59961H3.19961C2.31595 1.59961 1.59961 2.35365 1.59961 3.28382V12.7154C1.59961 13.6456 2.31595 14.3996 3.19961 14.3996Z" stroke="black" stroke-linecap="round" stroke-linejoin="round"/>
<path d="M3.99961 10.3995H11.9996L9.33294 5.73286L7.33294 8.73286L5.99961 7.39953L3.99961 10.3995Z" stroke="black" stroke-linecap="round" stroke-linejoin="round"/>
</svg>
