<svg width="36" height="36" viewBox="0 0 36 36" fill="none" xmlns="http://www.w3.org/2000/svg">
<path fill-rule="evenodd" clip-rule="evenodd" d="M20.5145 6.47441C19.8732 3.84186 16.1268 3.84186 15.4855 6.47441C15.3898 6.86999 15.202 7.23738 14.9375 7.54668C14.6729 7.85598 14.3391 8.09845 13.9631 8.25436C13.5871 8.41027 13.1797 8.47521 12.7739 8.4439C12.3681 8.41259 11.9754 8.28592 11.6278 8.07418C9.31248 6.66341 6.66302 9.31282 8.07381 11.6281C8.98509 13.1233 8.17676 15.074 6.4757 15.4875C3.84143 16.1271 3.84143 19.8751 6.4757 20.5129C6.8714 20.6088 7.23886 20.7968 7.54816 21.0615C7.85747 21.3263 8.09987 21.6603 8.25563 22.0365C8.41139 22.4126 8.47611 22.8203 8.44452 23.2262C8.41292 23.6321 8.28591 24.0248 8.07381 24.3723C6.66302 26.6876 9.31248 29.337 11.6278 27.9262C11.9753 27.7142 12.368 27.5871 12.774 27.5555C13.1799 27.5239 13.5875 27.5887 13.9637 27.7444C14.3398 27.9002 14.6739 28.1426 14.9387 28.4519C15.2034 28.7612 15.3914 29.1286 15.4872 29.5243C16.1268 32.1586 19.8749 32.1586 20.5128 29.5243C20.609 29.1288 20.7971 28.7616 21.0619 28.4526C21.3267 28.1435 21.6607 27.9012 22.0368 27.7455C22.4128 27.5898 22.8203 27.525 23.2261 27.5564C23.6319 27.5878 24.0246 27.7145 24.3722 27.9262C26.6875 29.337 29.337 26.6876 27.9262 24.3723C27.7145 24.0247 27.5878 23.632 27.5564 23.2262C27.525 22.8204 27.5897 22.413 27.7455 22.0369C27.9012 21.6609 28.1434 21.3269 28.4525 21.0621C28.7616 20.7973 29.1288 20.6091 29.5243 20.5129C32.1586 19.8734 32.1586 16.1254 29.5243 15.4875C29.1286 15.3916 28.7611 15.2037 28.4518 14.9389C28.1425 14.6742 27.9001 14.3401 27.7444 13.964C27.5886 13.5878 27.5239 13.1802 27.5555 12.7743C27.5871 12.3683 27.7141 11.9756 27.9262 11.6281C29.337 9.31282 26.6875 6.66341 24.3722 8.07418C24.0247 8.28627 23.632 8.41328 23.226 8.44488C22.8201 8.47647 22.4125 8.41175 22.0363 8.25599C21.6602 8.10023 21.3261 7.85783 21.0613 7.54853C20.7966 7.23924 20.6086 6.87178 20.5128 6.47609L20.5145 6.47441Z" fill="#FEFAE0"/>
<path d="M21 18C21 19.6569 19.6569 21 18 21C16.3431 21 15 19.6569 15 18C15 16.3431 16.3431 15 18 15C19.6569 15 21 16.3431 21 18Z" fill="#FEFAE0"/>
<path fill-rule="evenodd" clip-rule="evenodd" d="M20.5145 6.47441C19.8732 3.84186 16.1268 3.84186 15.4855 6.47441C15.3898 6.86999 15.202 7.23738 14.9375 7.54668C14.6729 7.85598 14.3391 8.09845 13.9631 8.25436C13.5871 8.41027 13.1797 8.47521 12.7739 8.4439C12.3681 8.41259 11.9754 8.28592 11.6278 8.07418C9.31248 6.66341 6.66302 9.31282 8.07381 11.6281C8.98509 13.1233 8.17676 15.074 6.4757 15.4875C3.84143 16.1271 3.84143 19.8751 6.4757 20.5129C6.8714 20.6088 7.23886 20.7968 7.54816 21.0615C7.85747 21.3263 8.09987 21.6603 8.25563 22.0365C8.41139 22.4126 8.47611 22.8203 8.44452 23.2262C8.41292 23.6321 8.28591 24.0248 8.07381 24.3723C6.66302 26.6876 9.31248 29.337 11.6278 27.9262C11.9753 27.7142 12.368 27.5871 12.774 27.5555C13.1799 27.5239 13.5875 27.5887 13.9637 27.7444C14.3398 27.9002 14.6739 28.1426 14.9387 28.4519C15.2034 28.7612 15.3914 29.1286 15.4872 29.5243C16.1268 32.1586 19.8749 32.1586 20.5128 29.5243C20.609 29.1288 20.7971 28.7616 21.0619 28.4526C21.3267 28.1435 21.6607 27.9012 22.0368 27.7455C22.4128 27.5898 22.8203 27.525 23.2261 27.5564C23.6319 27.5878 24.0246 27.7145 24.3722 27.9262C26.6875 29.337 29.337 26.6876 27.9262 24.3723C27.7145 24.0247 27.5878 23.632 27.5564 23.2262C27.525 22.8204 27.5897 22.413 27.7455 22.0369C27.9012 21.6609 28.1434 21.3269 28.4525 21.0621C28.7616 20.7973 29.1288 20.6091 29.5243 20.5129C32.1586 19.8734 32.1586 16.1254 29.5243 15.4875C29.1286 15.3916 28.7611 15.2037 28.4518 14.9389C28.1425 14.6742 27.9001 14.3401 27.7444 13.964C27.5886 13.5878 27.5239 13.1802 27.5555 12.7743C27.5871 12.3683 27.7141 11.9756 27.9262 11.6281C29.337 9.31282 26.6875 6.66341 24.3722 8.07418C24.0247 8.28627 23.632 8.41328 23.226 8.44488C22.8201 8.47647 22.4125 8.41175 22.0363 8.25599C21.6602 8.10023 21.3261 7.85783 21.0613 7.54853C20.7966 7.23924 20.6086 6.87178 20.5128 6.47609L20.5145 6.47441Z" stroke="black" stroke-width="2"/>
<path d="M21 18C21 19.6569 19.6569 21 18 21C16.3431 21 15 19.6569 15 18C15 16.3431 16.3431 15 18 15C19.6569 15 21 16.3431 21 18Z" stroke="black" stroke-width="2"/>
<circle cx="18" cy="18" r="2" fill="white"/>
</svg>
