<svg width="16" height="16" viewBox="0 0 16 16" fill="none" xmlns="http://www.w3.org/2000/svg">
<path d="M11.9568 7.73742L12.0911 7.25579L11.9568 7.73742ZM12.2363 8.01892L12.7234 7.90626L12.2363 8.01892ZM8.53492 3.79127L8.70825 3.32227L8.70825 3.32227L8.53492 3.79127ZM8.77704 4.10644L8.2825 4.1801L8.77704 4.10644ZM13.7111 1.33398C13.7111 1.05784 13.4872 0.833984 13.2111 0.833984C12.9349 0.833984 12.7111 1.05784 12.7111 1.33398H13.2111H13.7111ZM12.7111 5.73438C12.7111 6.01052 12.9349 6.23438 13.2111 6.23438C13.4872 6.23438 13.7111 6.01052 13.7111 5.73438H13.2111H12.7111ZM11.0511 3.04395C10.7749 3.04395 10.5511 3.2678 10.5511 3.54395C10.5511 3.82009 10.7749 4.04395 11.0511 4.04395V3.54395V3.04395ZM15.3337 4.04395C15.6098 4.04395 15.8337 3.82009 15.8337 3.54395C15.8337 3.2678 15.6098 3.04395 15.3337 3.04395V3.54395V4.04395ZM4.99035 10.3065C4.84677 10.0706 4.53916 9.99575 4.30328 10.1393C4.0674 10.2829 3.99258 10.5905 4.13616 10.8264L4.56325 10.5664L4.99035 10.3065ZM9.20725 10.8264C9.35083 10.5905 9.276 10.2829 9.04012 10.1393C8.80424 9.99575 8.49663 10.0706 8.35305 10.3065L8.78015 10.5664L9.20725 10.8264ZM4.81983 7.29565V6.79565C4.54369 6.79565 4.31983 7.01951 4.31983 7.29565H4.81983ZM4.88041 7.29565H5.38041C5.38041 7.01951 5.15655 6.79565 4.88041 6.79565V7.29565ZM8.46901 7.29565V6.79565C8.19287 6.79565 7.96901 7.01951 7.96901 7.29565H8.46901ZM8.52287 7.29565H9.02287C9.02287 7.01951 8.79901 6.79565 8.52287 6.79565V7.29565ZM4.88041 7.34518V7.84518C5.15655 7.84518 5.38041 7.62132 5.38041 7.34518H4.88041ZM4.81983 7.34518H4.31983C4.31983 7.62132 4.54369 7.84518 4.81983 7.84518V7.34518ZM8.52287 7.34518V7.84518C8.79901 7.84518 9.02287 7.62132 9.02287 7.34518H8.52287ZM8.46901 7.34518H7.96901C7.96901 7.62132 8.19287 7.84518 8.46901 7.84518V7.34518ZM8.53492 3.79127L8.70825 3.32227C8.02793 3.07084 7.29379 2.93385 6.52913 2.93385V3.43385V3.93385C7.17355 3.93385 7.79042 4.04917 8.36159 4.26026L8.53492 3.79127ZM11.9568 7.73742L12.0911 7.25579C10.6279 6.84787 9.50363 5.59076 9.27159 4.03279L8.77704 4.10644L8.2825 4.1801C8.5723 6.1259 9.97676 7.70447 11.8225 8.21906L11.9568 7.73742ZM12.3913 9.38392H12.8913C12.8913 8.87605 12.8333 8.38128 12.7234 7.90626L12.2363 8.01892L11.7491 8.13158C11.842 8.53318 11.8913 8.95238 11.8913 9.38392H12.3913ZM6.52913 15.334V15.834C10.0498 15.834 12.8913 12.9391 12.8913 9.38392H12.3913H11.8913C11.8913 12.4009 9.48357 14.834 6.52913 14.834V15.334ZM0.666992 9.38392H0.166992C0.166992 12.9391 3.00843 15.834 6.52913 15.834V15.334V14.834C3.5747 14.834 1.16699 12.4009 1.16699 9.38392H0.666992ZM6.52913 3.43385V2.93385C3.00843 2.93385 0.166992 5.82869 0.166992 9.38392H0.666992H1.16699C1.16699 6.36688 3.5747 3.93385 6.52913 3.93385V3.43385ZM11.9568 7.73742L11.8225 8.21906C11.8044 8.21401 11.7631 8.19172 11.7491 8.13158L12.2363 8.01892L12.7234 7.90626C12.645 7.56701 12.3811 7.33665 12.0911 7.25579L11.9568 7.73742ZM8.53492 3.79127L8.36159 4.26026C8.33066 4.24883 8.30974 4.23003 8.29814 4.2146C8.28723 4.20009 8.28366 4.18789 8.2825 4.1801L8.77704 4.10644L9.27159 4.03279C9.22801 3.74019 9.0383 3.44425 8.70825 3.32227L8.53492 3.79127ZM13.2111 1.33398H12.7111V5.73438H13.2111H13.7111V1.33398H13.2111ZM11.0511 3.54395V4.04395H15.3337V3.54395V3.04395H11.0511V3.54395ZM6.6717 11.7782V11.2782C5.97397 11.2782 5.35069 10.8984 4.99035 10.3065L4.56325 10.5664L4.13616 10.8264C4.66269 11.6914 5.5966 12.2782 6.6717 12.2782V11.7782ZM8.78015 10.5664L8.35305 10.3065C7.99271 10.8984 7.36944 11.2782 6.6717 11.2782V11.7782V12.2782C7.7468 12.2782 8.68071 11.6914 9.20725 10.8264L8.78015 10.5664ZM4.81983 7.29565V7.79565H4.88041V7.29565V6.79565H4.81983V7.29565ZM8.46901 7.29565V7.79565H8.52287V7.29565V6.79565H8.46901V7.29565ZM4.88041 7.29565H4.38041V7.34518H4.88041H5.38041V7.29565H4.88041ZM4.88041 7.34518V6.84518H4.81983V7.34518V7.84518H4.88041V7.34518ZM4.81983 7.34518H5.31983V7.29565H4.81983H4.31983V7.34518H4.81983ZM8.52287 7.29565H8.02287V7.34518H8.52287H9.02287V7.29565H8.52287ZM8.52287 7.34518V6.84518H8.46901V7.34518V7.84518H8.52287V7.34518ZM8.46901 7.34518H8.96901V7.29565H8.46901H7.96901V7.34518H8.46901Z" fill="#0E162B"/>
</svg>
