<svg width="18" height="18" viewBox="0 0 18 18" fill="none" xmlns="http://www.w3.org/2000/svg">
<path d="M8.99984 2.33366C5.31794 2.33366 2.33317 5.31843 2.33317 9.00033C2.33317 12.6822 5.31794 15.667 8.99984 15.667C12.6817 15.667 15.6665 12.6822 15.6665 9.00033C15.6665 5.31843 12.6817 2.33366 8.99984 2.33366ZM0.666504 9.00033C0.666504 4.39795 4.39746 0.666992 8.99984 0.666992C13.6022 0.666992 17.3332 4.39795 17.3332 9.00033C17.3332 13.6027 13.6022 17.3337 8.99984 17.3337C4.39746 17.3337 0.666504 13.6027 0.666504 9.00033ZM12.8868 6.29415C13.2308 6.59992 13.2618 7.12664 12.956 7.47063L8.51157 12.4706C8.35343 12.6485 8.12676 12.7503 7.88873 12.7503C7.65069 12.7503 7.42402 12.6485 7.26589 12.4706L5.04366 9.97063C4.7379 9.62664 4.76888 9.09992 5.11287 8.79415C5.45685 8.48839 5.98358 8.51937 6.28934 8.86336L7.88873 10.6627L11.7103 6.36336C12.0161 6.01937 12.5428 5.98839 12.8868 6.29415Z" fill="currentColor"/>
</svg>
