<svg width="16" height="16" viewBox="0 0 16 16" fill="none" xmlns="http://www.w3.org/2000/svg">
<path d="M10.6832 13.7129L10.6834 11.5704C10.6835 10.3869 9.72416 9.4275 8.54071 9.4275H3.74255C2.55927 9.4275 1.59998 10.3867 1.59985 11.57L1.59961 13.7129M14.3994 13.713L14.3996 11.5705C14.3997 10.3871 13.4404 9.42762 12.2569 9.42762M10.2705 2.70609C10.7967 3.09652 11.1377 3.72242 11.1377 4.42798C11.1377 5.13353 10.7967 5.75943 10.2705 6.14986M8.32881 4.42786C8.32881 5.61124 7.36949 6.57056 6.1861 6.57056C5.00272 6.57056 4.0434 5.61124 4.0434 4.42786C4.0434 3.24448 5.00272 2.28516 6.1861 2.28516C7.36949 2.28516 8.32881 3.24448 8.32881 4.42786Z" stroke="#0E162B" stroke-linecap="round" stroke-linejoin="round"/>
</svg>
