<svg width="16" height="16" viewBox="0 0 16 16" fill="none" xmlns="http://www.w3.org/2000/svg">
<path d="M14 13.0587V7.51207C14 6.95979 13.5523 6.51207 13 6.51207H10.9613C10.4244 6.51207 9.98627 6.93527 9.96235 7.46631V2.94141C9.96235 2.38912 9.51464 1.94141 8.96235 1.94141H6.92352C6.37124 1.94141 5.92352 2.38912 5.92352 2.94141V11.0587C5.92352 10.5065 5.47581 10.0587 4.92352 10.0587H3C2.44771 10.0587 2 10.5065 2 11.0587V13.0587C2 13.611 2.44771 14.0587 3 14.0587H5.92352H9.96235H13C13.5523 14.0587 14 13.611 14 13.0587Z" fill="#FDE68A"/>
<path d="M9.96235 14.0587V2.94141C9.96235 2.38912 9.51464 1.94141 8.96235 1.94141H6.92352C6.37124 1.94141 5.92352 2.38912 5.92352 2.94141V14.0587M9.96235 14.0587L9.96132 7.51223C9.96124 6.95988 10.409 6.51207 10.9613 6.51207H13C13.5523 6.51207 14 6.95979 14 7.51207V13.0587C14 13.611 13.5523 14.0587 13 14.0587H9.96235ZM9.96235 14.0587H5.92352M5.92352 14.0587V11.0587C5.92352 10.5065 5.47581 10.0587 4.92352 10.0587H3C2.44772 10.0587 2 10.5065 2 11.0587V13.0587C2 13.611 2.44771 14.0587 3 14.0587H5.92352Z" stroke="black" stroke-linecap="round" stroke-linejoin="round"/>
</svg>
